<svg width="73" height="73" viewBox="0 0 73 73" fill="none" xmlns="http://www.w3.org/2000/svg">
<rect x="0.5" y="0.5" width="72" height="72" rx="36" fill="#301E3A" fill-opacity="0.1"/>
<path d="M45.5016 30.4327L34.5744 46.9982C34.296 47.0221 34.4292 46.5146 34.4472 46.3475C34.8393 42.5087 35.8688 38.6401 36.1157 34.8058C36.0723 34.6983 35.7536 34.3133 35.6997 34.3133H25V17H43.1072L36.2998 29.3969C36.1023 29.773 36.3193 30.1685 36.5976 30.4327H45.5016Z" fill="#301E3A"/>
<path d="M46.2498 32.373V38.8655L33.8291 56.9997V50.5072L46.2498 32.373Z" fill="#301E3A"/>
<path d="M34.5774 35.8057L33.3802 43.5668H25V35.8057H34.5774Z" fill="#301E3A"/>
<path d="M43.7056 19.2383V25.283L41.7602 28.9397H38.3184L43.7056 19.2383Z" fill="#301E3A"/>
</svg>
