<svg width="73" height="73" viewBox="0 0 73 73" fill="none" xmlns="http://www.w3.org/2000/svg">
<rect x="0.5" y="0.5" width="72" height="72" rx="36" fill="#301E3A" fill-opacity="0.1"/>
<path d="M60.2555 23.9459C60.0055 24.3252 58.5809 25.6619 58.171 25.9752C55.5679 27.9635 52.3637 27.2398 50.3155 24.8797H50.1343C49.5669 25.8484 48.5147 26.5733 47.7561 27.4251L45.8828 27.6116C46.1515 27.0682 45.8566 26.2227 46.0728 25.7502C46.2802 25.2951 48.0385 23.9123 48.5047 23.3205C49.167 22.4749 49.5157 21.469 49.7219 20.4282C49.8331 19.8736 49.6094 19.477 50.0055 18.9697C50.8253 17.9177 52.32 18.7918 52.1325 20.0278C54.0908 18.8192 56.5501 19.1139 58.3147 20.5277C58.6821 20.8224 60.0318 22.1131 60.2555 22.4513C60.5829 22.9499 60.5829 23.4473 60.2555 23.9459Z" fill="#301E3A"/>
<path d="M41.6545 36.6754C41.6545 39.3476 39.4776 41.5149 36.792 41.5149C34.1064 41.5149 31.9282 39.3476 31.9282 36.6754C31.9282 34.0033 34.1052 31.8359 36.792 31.8359C39.4788 31.8359 41.6545 34.002 41.6545 36.6754Z" fill="#301E3A"/>
<path d="M47.463 47.3402C45.0149 49.7276 40.7697 48.8808 39.525 45.6889C39.3463 45.2288 38.9839 43.9431 39.1951 43.5266C39.2488 43.4209 40.8871 42.6188 41.2483 42.3378C42.2555 41.5482 43.1791 40.306 43.5215 39.0676C48.0466 38.559 50.7259 44.157 47.463 47.3402Z" fill="#301E3A"/>
<path d="M34.3715 29.9623C32.2883 30.5915 30.7399 32.3124 29.9913 34.3069C25.7836 34.6239 23.1281 29.8864 25.7112 26.5055C28.6529 22.6533 34.9364 25.1825 34.3715 29.9623Z" fill="#301E3A"/>
<path d="M43.1557 28.443C42.8371 29.0498 41.4674 30.4773 40.7913 30.5755C40.5576 30.6091 39.1442 29.8879 38.6606 29.7623C38.0395 29.6006 37.3997 29.5248 36.7611 29.4763C36.7586 27.4445 35.9125 25.5545 34.4204 24.1941C37.1797 18.105 46.2612 22.5329 43.1557 28.443Z" fill="#301E3A"/>
<path d="M50.691 38.3038C49.2114 39.5808 49.4113 38.9118 48.2979 38.0787C47.1007 37.1822 45.4911 36.7283 44.0077 36.6898C43.9702 36.0482 43.8952 35.2897 43.7215 34.6742C43.6065 34.2676 42.9292 33.0689 42.9292 32.8973C42.9292 32.2905 44.2864 30.9302 44.8175 30.5944C49.9524 27.3503 55.0674 34.525 50.691 38.3038Z" fill="#301E3A"/>
<path d="M29.3851 50.6808C26.632 54.8662 20.1349 52.6392 20.5161 47.5709C20.6048 46.3934 21.4546 44.8055 22.4456 44.1427C22.8305 43.8841 23.694 44.614 24.1764 44.7956C25.5323 45.3091 26.9582 45.3725 28.3866 45.1462C27.9905 47.0735 28.3666 49.0083 29.3851 50.6808Z" fill="#301E3A"/>
<path d="M39.3706 49.418C38.707 50.5396 37.2123 51.3491 35.9327 51.4722C30.8539 51.9596 28.5258 45.4502 32.6947 42.6611C34.0469 43.3948 35.3316 43.7678 36.8674 43.9195C36.7962 45.4514 37.3561 46.8727 38.2071 48.1199L39.3706 49.418Z" fill="#301E3A"/>
<path d="M30.845 40.7325C29.0529 43.5725 25.009 43.6633 22.9495 41.0434C21.7985 39.5798 21.666 37.3267 22.5858 35.7053C22.777 35.3683 23.7243 34.0478 24.1354 34.2567C24.3716 34.3773 25.014 35.0736 25.3464 35.3011C26.671 36.2064 28.0382 36.5458 29.6228 36.7025C29.5916 38.1449 30.0439 39.54 30.845 40.7325Z" fill="#301E3A"/>
</svg>
