<svg width="73" height="73" viewBox="0 0 73 73" fill="none" xmlns="http://www.w3.org/2000/svg">
<rect x="0.5" y="0.5" width="72" height="72.0003" rx="36" fill="#301E3A" fill-opacity="0.1"/>
<path d="M39.2287 47.5728V49.5081H20.5V47.5728C20.5 47.202 20.9133 46.0533 21.1018 45.6787C21.8447 44.2079 23.4629 42.8569 25.1197 42.6409V40.1438H22.8723V37.7715H36.8564V40.1438H34.6089V42.6409C36.2358 42.8245 37.9139 44.2316 38.6256 45.6787C38.8154 46.0645 39.2287 47.192 39.2287 47.5728Z" fill="#301E3A"/>
<path d="M39.2287 51.7559H20.5V56.5005H39.2287V51.7559Z" fill="#301E3A"/>
<path d="M55.9634 28.1007C52.0229 28.9997 50.833 25.9107 48.2809 25.9107H46.4704V28.0957L46.2832 28.283H44.0981V16.5464H46.4704V18.9187C46.9437 18.895 47.4306 18.9549 47.9038 18.9187C51.3574 18.6452 52.4848 15.3864 56.6701 16.8985C62.0178 18.8325 61.5395 26.8297 55.9634 28.102V28.1007Z" fill="#301E3A"/>
<path d="M41.7258 18.9189V25.911H34.4216C34.0907 25.911 33.1705 25.6475 32.796 25.5389C30.9531 25.0033 29.5085 23.8783 28.2437 22.4774C29.496 21.0877 30.9693 19.8566 32.7922 19.2885C33.0257 19.2149 34.1469 18.9189 34.2968 18.9189H41.7258Z" fill="#301E3A"/>
<path d="M27.8741 34.8302C24.2694 32.3156 28.1475 27.7708 29.8031 25.2861C29.9705 25.2449 30.847 26.5684 31.0168 26.8194C31.7859 27.9581 33.2255 30.2617 33.3603 31.5902C33.6563 34.5006 30.3001 36.5221 27.8741 34.8302Z" fill="#301E3A"/>
</svg>
