<svg width="73" height="73" viewBox="0 0 73 73" fill="none" xmlns="http://www.w3.org/2000/svg">
<rect x="0.5" y="0.5" width="72" height="72" rx="36" fill="#301E3A" fill-opacity="0.1"/>
<path d="M50.3481 44.9378C48.629 50.8426 42.9574 55.6201 36.773 56L38.8207 54.9768C43.2182 51.4081 40.9837 45.8507 37.4012 42.6456C35.5667 41.0042 35.1642 40.9001 33.2608 42.5202C29.5228 45.7014 27.2858 51.3216 31.7159 54.9768L33.7623 56C26.8005 55.5172 20.8531 49.857 19.7396 43.0042C18.1396 33.1633 24.8042 23.5068 32.2714 17.8327C32.9523 17.3149 34.6514 15.9105 35.4439 16.0045C35.7548 16.0409 36.5222 16.5061 36.5222 16.8158V27.9131C36.6012 28.0059 37.415 27.3225 37.5266 27.226C39.1041 25.8554 40.5599 24.1952 42.17 22.841C43.4515 22.0359 44.3957 23.6497 45.0991 24.5413C49.4967 30.1113 52.4121 37.8518 50.3481 44.9378Z" fill="#301E3A"/>
<path d="M38.4721 51.8712C37.1593 54.3866 33.3749 54.3828 32.0633 51.8712C30.5999 49.0674 32.9887 45.6115 35.2219 43.9727C37.4439 45.6128 39.9443 49.0523 38.4721 51.8712Z" fill="#301E3A"/>
</svg>
