<svg width="63" height="73" viewBox="0 0 63 73" fill="none" xmlns="http://www.w3.org/2000/svg">
<g clip-path="url(#clip0_16088_54366)">
<path d="M31.5 0C48.897 0 63 14.1534 63 31.6123C62.9999 45.0341 54.6641 56.5 42.9053 61.0859L42.9746 61.1582L31.5 73.1045L20.0254 61.1582L20.0938 61.0859C8.33537 56.4998 7.58086e-05 45.0338 0 31.6123C0 14.1534 14.103 0 31.5 0Z" fill="#121212"/>
<rect width="28.6364" height="29.8127" transform="translate(17.1797 18.8809)" fill="#121212"/>
<path d="M32.8105 38.9258L34.042 39.9951V47.1777C34.042 48.118 33.1646 48.8807 32.082 48.8809C30.9992 48.8809 30.1211 48.1181 30.1211 47.1777V39.9951L31.3535 38.9258L32.082 38.293L32.8105 38.9258ZM31.2979 37.1865L30.6602 37.8232L24.0264 44.457C23.6916 44.7918 23.2532 44.959 22.8145 44.959C22.5953 44.9589 22.3762 44.9177 22.1699 44.834C21.9636 44.7506 21.771 44.6242 21.6035 44.457C20.9344 43.7879 20.9344 42.7033 21.6035 42.0342L28.874 34.7637L31.2979 37.1865ZM22.3936 22.4102C22.8241 22.4102 23.2551 22.5745 23.584 22.9033L30.1035 29.4229L31.7871 31.1074L34.1689 33.4883L35.8535 35.1729L42.3721 41.6924C43.03 42.3503 43.03 43.4167 42.3721 44.0742C42.0435 44.4029 41.6126 44.5674 41.1816 44.5674C40.7511 44.5674 40.3201 44.4029 39.9912 44.0742L31.7871 35.8701L29.4062 33.4883L27.7217 31.8047L21.2021 25.2852C20.5445 24.6272 20.5444 23.5608 21.2021 22.9033C21.2841 22.821 21.3732 22.7493 21.4668 22.6875C21.6534 22.5645 21.8592 22.4826 22.0713 22.4414C22.1776 22.4208 22.2858 22.4102 22.3936 22.4102ZM27.1348 33.0547L27.7676 33.7832L27.1348 34.5117L26.0654 35.7432H18.8828C17.9425 35.7432 17.1799 34.8658 17.1797 33.7832C17.1797 32.7004 17.9424 31.8223 18.8828 31.8223H26.0654L27.1348 33.0547ZM45.4766 31.8223C46.417 31.8223 47.1797 32.7004 47.1797 33.7832C47.1795 34.8658 46.4169 35.7432 45.4766 35.7432H38.2939L37.2236 34.5117L36.5918 33.7832L37.2236 33.0547L38.2939 31.8223H45.4766ZM41.5449 22.8027C41.7641 22.8028 41.9836 22.844 42.1895 22.9277C42.3958 23.0111 42.5883 23.1375 42.7559 23.3047C43.425 23.9742 43.425 25.0584 42.7559 25.7275L35.4854 32.998L33.0615 30.5752L33.6992 29.9385L40.333 23.3047C40.6678 22.9699 41.1062 22.8027 41.5449 22.8027ZM32.082 18.8809C33.1646 18.8811 34.042 19.6437 34.042 20.584V27.7666L32.8105 28.8359L32.082 29.4688L31.3535 28.8359L30.1211 27.7666V20.584C30.1211 19.6436 30.9992 18.8809 32.082 18.8809Z" fill="white"/>
</g>
<defs>
<clipPath id="clip0_16088_54366">
<rect width="63" height="73" fill="white"/>
</clipPath>
</defs>
</svg>
